<?xml version="1.0" standalone="no"?>
<!DOCTYPE svg PUBLIC "-//W3C//DTD SVG 20010904//EN"
 "http://www.w3.org/TR/2001/REC-SVG-20010904/DTD/svg10.dtd">
<svg version="1.0" xmlns="http://www.w3.org/2000/svg"
 width="499.000000pt" height="500.000000pt" viewBox="0 0 499.000000 500.000000"
 preserveAspectRatio="xMidYMid meet">
<metadata>
Created by potrace 1.16, written by Peter Selinger 2001-2019
</metadata>
<g transform="translate(0.000000,500.000000) scale(0.100000,-0.100000)"
fill="#000000" stroke="none">
<path d="M2040 4520 c-272 -50 -484 -90 -485 -93 -1 -1 -15 -33 -30 -72 -49
-126 -92 -239 -120 -310 -14 -38 -40 -103 -56 -144 -16 -40 -29 -75 -29 -76 0
-2 57 18 126 45 183 70 166 70 209 0 34 -56 55 -75 55 -50 0 19 76 115 124
157 57 50 154 102 227 123 31 8 57 20 57 25 0 6 -25 39 -56 74 -31 36 -56 69
-54 74 1 5 36 65 77 133 41 69 75 127 75 130 0 6 -11 4 -120 -16z"/>
<path d="M3606 3982 c-175 -296 -369 -509 -606 -667 -173 -115 -312 -178 -568
-259 -145 -45 -226 -106 -290 -216 -46 -80 -173 -253 -252 -345 -216 -251
-469 -454 -822 -660 -195 -113 -209 -125 -147 -125 129 1 491 133 814 297 67
35 227 132 338 207 l118 79 25 -24 c35 -33 115 -161 167 -266 107 -217 153
-385 189 -688 19 -159 16 -619 -5 -814 -20 -182 -22 -264 -6 -259 44 15 175
361 256 678 123 481 185 956 186 1425 1 294 -8 368 -56 464 l-25 49 85 83
c209 207 396 465 534 741 86 171 153 356 147 406 -2 23 -16 5 -82 -106z"/>
<path d="M2037 4015 c-160 -56 -266 -180 -303 -355 -37 -174 44 -364 196 -464
145 -96 311 -107 466 -31 314 153 342 601 52 795 -122 81 -276 102 -411 55z"/>
</g>
</svg>
